<?xml version="1.0" encoding="utf-8"?>
<!-- Generator: Adobe Illustrator 24.1.0, SVG Export Plug-In . SVG Version: 6.00 Build 0)  -->
<svg version="1.1" xmlns="http://www.w3.org/2000/svg" xmlns:xlink="http://www.w3.org/1999/xlink" x="0px" y="0px"
	 viewBox="0 0 83 38" style="enable-background:new 0 0 83 38;" xml:space="preserve">
<style type="text/css">
	.st0{fill:#410D68;}
	.st1{fill:#FFCE47;}
</style>
<g id="Purple">
	<g>
		<g>
			<path class="st0" d="M40.2,7.5l-0.8,0.3l1.9,1.1l-0.1-0.8L40.2,7.5z"/>
			<path class="st0" d="M38.6,8.1c-0.2,0.1-0.5,0.1-0.7,0.1c0,0.1-0.1,0.1-0.1,0.2l3.8,2.2c0-0.1,0.1-0.1,0.1-0.2
				c-0.1-0.2-0.2-0.4-0.3-0.7L38.6,8.1z"/>
			<path class="st0" d="M37.4,9.7l3.3,1.9c0.2-0.1,0.3-0.3,0.5-0.5L37.6,9C37.5,9.2,37.4,9.5,37.4,9.7z"/>
			<path class="st0" d="M38,12.3c0.2,0.1,1.1,0.2,2-0.4l-2.8-1.6C37.4,11.4,37.8,12.2,38,12.3z"/>
			<path class="st0" d="M45,7.3l-1.9-1.1c0.8-0.3,1.2-1.1,1-1.9L44.8,4c0.2-0.1,0.2-0.3,0.1-0.4c-0.1-0.2-0.3-0.2-0.4-0.1l-0.7,0.3
				c-0.3-0.3-0.6-0.6-1.1-0.6l0-0.7c0-0.2-0.2-0.3-0.3-0.3c-0.2,0-0.3,0.2-0.3,0.3l0,0.8c-0.8,0.2-1.3,1-1.2,1.8L39,3.9
				c-1-0.5-2.2-0.2-2.7,0.8c-1,1.6,0.7,3.5,2.4,2.8l2.9-1.1L42,9.4c0.3,1.9,2.8,2.3,3.7,0.7C46.3,9.1,46,7.9,45,7.3z"/>
		</g>
		<path class="st0" d="M14.2,37.5h-3.2v-6.6h-6v6.6H1.9V22.2h3.2v6h6v-6h3.2V37.5z M17.7,22.8c0-1,0.6-1.6,1.7-1.6
			c1.1,0,1.7,0.5,1.7,1.6c0,0.5-0.1,0.9-0.4,1.2c-0.3,0.3-0.7,0.4-1.3,0.4C18.2,24.4,17.7,23.8,17.7,22.8z M21,37.5h-3.1V25.8H21
			V37.5z M27,37.5l-4.4-11.7h3.3l2.2,6.7c0.2,0.7,0.4,1.5,0.4,2.4h0.1c0-0.8,0.2-1.6,0.5-2.4l2.2-6.7h3.3l-4.4,11.7H27z M41.1,27.9
			c-0.7,0-1.2,0.2-1.6,0.6c-0.4,0.4-0.6,1-0.6,1.8h4.4c0-0.8-0.2-1.4-0.6-1.8C42.3,28.1,41.7,27.9,41.1,27.9z M41.5,37.7
			c-1.9,0-3.3-0.5-4.3-1.6c-1-1-1.6-2.5-1.6-4.4c0-2,0.5-3.5,1.4-4.5c1-1.1,2.3-1.6,4-1.6c1.6,0,2.9,0.5,3.8,1.4
			c0.9,0.9,1.4,2.2,1.4,3.9v1.5h-7.4c0,0.9,0.3,1.6,0.8,2.1c0.5,0.5,1.2,0.8,2.1,0.8c0.7,0,1.4-0.1,2-0.2c0.6-0.1,1.3-0.4,1.9-0.7
			v2.5c-0.5,0.3-1.1,0.5-1.8,0.6C43.2,37.7,42.4,37.7,41.5,37.7z M52.4,37.7c-1.4,0-2.4-0.5-3.2-1.6c-0.8-1.1-1.2-2.5-1.2-4.4
			c0-1.9,0.4-3.4,1.2-4.5c0.8-1.1,1.9-1.6,3.3-1.6c1.5,0,2.6,0.6,3.3,1.7h0.1c-0.2-0.9-0.2-1.7-0.2-2.3v-3.7h3.2v16.3h-2.4L55.8,36
			h-0.1C55,37.1,53.9,37.7,52.4,37.7z M53.5,35.2c0.8,0,1.4-0.2,1.8-0.7c0.4-0.5,0.6-1.3,0.6-2.4v-0.3c0-1.3-0.2-2.2-0.6-2.7
			c-0.4-0.5-1-0.8-1.9-0.8c-0.7,0-1.2,0.3-1.6,0.9c-0.4,0.6-0.6,1.5-0.6,2.6s0.2,2,0.6,2.6C52.2,34.9,52.8,35.2,53.5,35.2z M68,37.5
			h-6.9v-1.8l1.8-0.9v-9.9l-1.8-0.9v-1.8H68v1.8l-1.8,0.9v9.9l1.8,0.9V37.5z M81,37.5h-3.1v-6.8c0-0.8-0.1-1.5-0.4-1.9
			c-0.3-0.4-0.8-0.6-1.4-0.6c-0.9,0-1.5,0.3-1.9,0.9c-0.4,0.6-0.6,1.6-0.6,3v5.5h-3.1V25.8h2.4l0.4,1.5h0.2c0.4-0.6,0.8-1,1.4-1.3
			c0.6-0.3,1.3-0.4,2.1-0.4c1.3,0,2.4,0.4,3.1,1.1c0.7,0.7,1,1.8,1,3.2V37.5z"/>
		<g>
			<path class="st0" d="M23.3,23.5c-0.1,0-0.3,0-0.4,0c-0.4,0-0.7-0.4-0.7-0.8c0-0.4,0.4-0.7,0.8-0.7c0.2,0,0.6,0,1.1,0
				c0.4,0,0.8,0.3,0.8,0.7c0,0.4-0.3,0.8-0.7,0.8C23.9,23.4,23.6,23.5,23.3,23.5z"/>
			<path class="st0" d="M26.1,23c-0.3,0-0.6-0.2-0.7-0.5c-0.1-0.4,0.1-0.8,0.5-0.9c0.7-0.2,1.4-0.5,2.1-1c0.3-0.2,0.8-0.1,1,0.2
				c0.2,0.3,0.1,0.8-0.2,1c-0.7,0.5-1.6,0.9-2.4,1.1C26.2,23,26.1,23,26.1,23z M29.8,20.7c-0.2,0-0.4-0.1-0.5-0.2
				c-0.3-0.3-0.3-0.8,0-1.1c0.4-0.4,1-1,1.4-1.8c0.2-0.4,0.7-0.5,1-0.2c0.4,0.2,0.5,0.7,0.2,1c-0.6,0.9-1.2,1.6-1.7,2.1
				C30.2,20.7,30,20.7,29.8,20.7z M30,17.6c-0.2,0-0.4,0-0.6,0c-0.7-0.1-1.3-0.2-1.9-0.5c-0.4-0.2-0.6-0.6-0.4-1
				c0.2-0.4,0.6-0.6,1-0.4c0.5,0.2,1,0.3,1.5,0.4c0.1,0,0.3,0,0.4,0l0.2,0c0.4,0,0.8,0.3,0.8,0.7c0,0.4-0.3,0.8-0.7,0.8
				C30.2,17.6,30.1,17.6,30,17.6z M32.2,17.2c-0.3,0-0.6-0.2-0.7-0.5c0-0.1,0-0.2,0-0.3c0-0.1,0-0.3,0-0.4c0.1-0.4,0.2-0.8,0.2-1.2
				c0-0.3,0-0.6-0.1-0.9c-0.1-0.4,0.1-0.8,0.5-0.9c0.4-0.1,0.8,0.1,0.9,0.5c0.1,0.4,0.2,0.8,0.2,1.2c0,0.1,0,0.3,0,0.4
				c0.3-0.2,0.6-0.3,0.9-0.5c0.3-0.2,0.8-0.1,1,0.2c0.2,0.3,0.1,0.8-0.2,1c-0.8,0.5-1.6,0.9-2.4,1.2C32.4,17.2,32.3,17.2,32.2,17.2z
				 M26.2,16.1c-0.2,0-0.4-0.1-0.5-0.2c-0.1-0.1-0.2-0.2-0.4-0.4c-0.6-0.7-1-1.4-1.1-2.1c-0.1-0.4,0.2-0.8,0.6-0.9
				c0.4-0.1,0.8,0.2,0.9,0.6c0.1,0.5,0.4,0.9,0.8,1.4c0.1,0.1,0.2,0.2,0.3,0.3c0.3,0.3,0.3,0.8,0,1.1C26.6,16,26.4,16.1,26.2,16.1z
				 M31.4,12.8c-0.2,0-0.4-0.1-0.6-0.3c-0.4-0.6-1-1-1.6-1.3c-0.4-0.2-0.6-0.6-0.4-1c0.2-0.4,0.6-0.6,1-0.4c0.9,0.3,1.6,1,2.3,1.7
				c0.3,0.3,0.2,0.8-0.1,1.1C31.8,12.7,31.6,12.8,31.4,12.8z M25.4,12.1c-0.2,0-0.3-0.1-0.5-0.2c-0.3-0.3-0.4-0.7-0.1-1.1
				c0.6-0.7,1.5-1.2,2.6-1.4c0.4-0.1,0.8,0.2,0.9,0.6c0.1,0.4-0.2,0.8-0.6,0.9c-0.7,0.1-1.4,0.4-1.7,0.8
				C25.8,12,25.6,12.1,25.4,12.1z"/>
			<path class="st0" d="M36.1,14.9c-0.2,0-0.4-0.1-0.6-0.3c-0.3-0.3-0.2-0.8,0.1-1.1c0.3-0.3,0.6-0.5,0.9-0.8c0.3-0.3,0.8-0.3,1.1,0
				c0.3,0.3,0.3,0.8,0,1.1c-0.3,0.3-0.6,0.6-1,0.9C36.4,14.8,36.3,14.9,36.1,14.9z"/>
		</g>
	</g>
</g>
<g id="Yellow">
	<path class="st1" d="M19.4,20.1l-2.2,1.3v2.5l2.2,1.3l2.2-1.3v-2.5L19.4,20.1z"/>
</g>
</svg>
